<svg width="56" height="106" viewBox="0 0 56 106" fill="none" xmlns="http://www.w3.org/2000/svg">
<path d="M33.3461 1H22.5656C10.6553 1 1 10.6322 1 22.514V56.1271C1 68.009 10.6553 77.6411 22.5656 77.6411H33.3461C45.2565 77.6411 54.9118 68.009 54.9118 56.1271V22.514C54.9118 10.6322 45.2565 1 33.3461 1Z" fill="white" stroke="black" stroke-miterlimit="10"/>
<path d="M1 46.2708C1 46.2708 21.7077 39.5083 54.9118 46.2708" stroke="black" stroke-width="2" stroke-miterlimit="10"/>
<path d="M33.349 1H22.5675C10.6545 1 1 10.778 1 22.8434V47.0222C1 47.0222 21.7058 39.8242 54.9118 47.0222V22.8434C54.9118 10.7828 45.2573 1 33.3442 1H33.349Z" fill="#151147" stroke="black" stroke-miterlimit="10"/>
<path d="M20.8645 52.4693C21.1118 50.6786 18.7816 48.8759 15.6598 48.443C12.538 48.01 9.80679 49.1107 9.55944 50.9015C9.31209 52.6922 11.6423 54.4949 14.7641 54.9278C17.8859 55.3608 20.6171 54.2601 20.8645 52.4693Z" stroke="black" stroke-miterlimit="10"/>
<path d="M19.1672 51.3293C19.3684 50.1297 18.4092 48.9683 17.0248 48.7352C15.6404 48.5021 14.355 49.2855 14.1538 50.485C13.9526 51.6846 14.9118 52.846 16.2962 53.0791C17.6807 53.3122 18.966 52.5288 19.1672 51.3293Z" fill="black" stroke="black" stroke-miterlimit="10"/>
<path d="M40.0002 54.9234C43.1219 54.4904 45.4521 52.6878 45.2048 50.897C44.9574 49.1063 42.2262 48.0056 39.1044 48.4385C35.9826 48.8714 33.6524 50.6741 33.8998 52.4649C34.1471 54.2556 36.8784 55.3563 40.0002 54.9234Z" stroke="black" stroke-miterlimit="10"/>
<path d="M38.4601 53.0864C39.8445 52.8533 40.8037 51.6919 40.6025 50.4924C40.4013 49.2928 39.116 48.5094 37.7316 48.7425C36.3471 48.9757 35.3879 50.1371 35.5891 51.3366C35.7903 52.5362 37.0757 53.3196 38.4601 53.0864Z" fill="black" stroke="black" stroke-miterlimit="10"/>
<path d="M26.671 58.3493L14.3007 65.3293C13.6978 65.6689 13.9502 66.5581 14.6512 66.5581H40.5087C41.191 66.5581 41.4574 65.7136 40.8919 65.3516L30.1713 58.4521C29.1245 57.7773 27.7599 57.7371 26.671 58.3538V58.3493Z" fill="#FAB360" stroke="black" stroke-miterlimit="10"/>
<path d="M40.4556 66.5582L38.5034 69.4656C37.7466 70.5948 36.5744 71.2544 35.333 71.2544H20.3621C19.1068 71.2544 17.9207 70.579 17.1685 69.434L15.2764 66.5635H40.6356" fill="#F8AF5B"/>
<path d="M40.4556 66.5582L38.5034 69.4656C37.7466 70.5948 36.5744 71.2544 35.333 71.2544H20.3621C19.1068 71.2544 17.9207 70.579 17.1685 69.434L15.2764 66.5635H40.6356" stroke="black" stroke-miterlimit="10"/>
<path d="M37.442 51.3428C38.0645 51.3428 38.5691 51.0484 38.5691 50.6853C38.5691 50.3222 38.0645 50.0278 37.442 50.0278C36.8195 50.0278 36.3149 50.3222 36.3149 50.6853C36.3149 51.0484 36.8195 51.3428 37.442 51.3428Z" fill="white"/>
<path d="M17.1549 51.3428C17.7774 51.3428 18.282 51.0484 18.282 50.6853C18.282 50.3222 17.7774 50.0278 17.1549 50.0278C16.5324 50.0278 16.0278 50.3222 16.0278 50.6853C16.0278 51.0484 16.5324 51.3428 17.1549 51.3428Z" fill="white"/>
<circle cx="44.6742" cy="62.1438" r="0.469615" fill="black"/>
<circle cx="46.1769" cy="60.4533" r="0.469615" fill="black"/>
<circle cx="48.0556" cy="61.7682" r="0.469615" fill="black"/>
<circle cx="47.4918" cy="58.7626" r="0.469615" fill="black"/>
<mask id="path-17-outside-1_337_4" maskUnits="userSpaceOnUse" x="11" y="82" width="33" height="20" fill="black">
<rect fill="white" x="11" y="82" width="33" height="20"/>
<path d="M13.9985 83.6484H16.8511L21.0513 95.6538L25.2515 83.6484H28.104L22.1968 100H19.9058L13.9985 83.6484ZM12.46 83.6484H15.3013L15.8179 95.3506V100H12.46V83.6484ZM26.8013 83.6484H29.6538V100H26.2847V95.3506L26.8013 83.6484ZM32.5625 98.439C32.5625 97.9598 32.7272 97.5592 33.0566 97.2373C33.3936 96.9154 33.839 96.7544 34.3931 96.7544C34.9471 96.7544 35.3888 96.9154 35.7183 97.2373C36.0552 97.5592 36.2236 97.9598 36.2236 98.439C36.2236 98.9181 36.0552 99.3187 35.7183 99.6406C35.3888 99.9626 34.9471 100.124 34.3931 100.124C33.839 100.124 33.3936 99.9626 33.0566 99.6406C32.7272 99.3187 32.5625 98.9181 32.5625 98.439ZM42.8608 83.6484V100H39.5029V83.6484H42.8608Z"/>
</mask>
<path d="M13.9985 83.6484H16.8511L21.0513 95.6538L25.2515 83.6484H28.104L22.1968 100H19.9058L13.9985 83.6484ZM12.46 83.6484H15.3013L15.8179 95.3506V100H12.46V83.6484ZM26.8013 83.6484H29.6538V100H26.2847V95.3506L26.8013 83.6484ZM32.5625 98.439C32.5625 97.9598 32.7272 97.5592 33.0566 97.2373C33.3936 96.9154 33.839 96.7544 34.3931 96.7544C34.9471 96.7544 35.3888 96.9154 35.7183 97.2373C36.0552 97.5592 36.2236 97.9598 36.2236 98.439C36.2236 98.9181 36.0552 99.3187 35.7183 99.6406C35.3888 99.9626 34.9471 100.124 34.3931 100.124C33.839 100.124 33.3936 99.9626 33.0566 99.6406C32.7272 99.3187 32.5625 98.9181 32.5625 98.439ZM42.8608 83.6484V100H39.5029V83.6484H42.8608Z" fill="white"/>
<path d="M13.9985 83.6484V82.6484H12.574L13.058 83.9882L13.9985 83.6484ZM16.8511 83.6484L17.795 83.3182L17.5606 82.6484H16.8511V83.6484ZM21.0513 95.6538L20.1074 95.984L21.0513 98.682L21.9952 95.984L21.0513 95.6538ZM25.2515 83.6484V82.6484H24.5419L24.3076 83.3182L25.2515 83.6484ZM28.104 83.6484L29.0445 83.9882L29.5285 82.6484H28.104V83.6484ZM22.1968 100V101H22.8988L23.1373 100.34L22.1968 100ZM19.9058 100L18.9653 100.34L19.2038 101H19.9058V100ZM12.46 83.6484V82.6484H11.46V83.6484H12.46ZM15.3013 83.6484L16.3003 83.6043L16.2581 82.6484H15.3013V83.6484ZM15.8179 95.3506H16.8179V95.3285L16.8169 95.3065L15.8179 95.3506ZM15.8179 100V101H16.8179V100H15.8179ZM12.46 100H11.46V101H12.46V100ZM26.8013 83.6484V82.6484H25.8444L25.8022 83.6043L26.8013 83.6484ZM29.6538 83.6484H30.6538V82.6484H29.6538V83.6484ZM29.6538 100V101H30.6538V100H29.6538ZM26.2847 100H25.2847V101H26.2847V100ZM26.2847 95.3506L25.2856 95.3065L25.2847 95.3285V95.3506H26.2847ZM13.9985 84.6484H16.8511V82.6484H13.9985V84.6484ZM15.9072 83.9787L20.1074 95.984L21.9952 95.3236L17.795 83.3182L15.9072 83.9787ZM21.9952 95.984L26.1954 83.9787L24.3076 83.3182L20.1074 95.3236L21.9952 95.984ZM25.2515 84.6484H28.104V82.6484H25.2515V84.6484ZM27.1635 83.3087L21.2563 99.6602L23.1373 100.34L29.0445 83.9882L27.1635 83.3087ZM22.1968 99H19.9058V101H22.1968V99ZM20.8463 99.6602L14.939 83.3087L13.058 83.9882L18.9653 100.34L20.8463 99.6602ZM12.46 84.6484H15.3013V82.6484H12.46V84.6484ZM14.3022 83.6925L14.8188 95.3947L16.8169 95.3065L16.3003 83.6043L14.3022 83.6925ZM14.8179 95.3506V100H16.8179V95.3506H14.8179ZM15.8179 99H12.46V101H15.8179V99ZM13.46 100V83.6484H11.46V100H13.46ZM26.8013 84.6484H29.6538V82.6484H26.8013V84.6484ZM28.6538 83.6484V100H30.6538V83.6484H28.6538ZM29.6538 99H26.2847V101H29.6538V99ZM27.2847 100V95.3506H25.2847V100H27.2847ZM27.2837 95.3947L27.8003 83.6925L25.8022 83.6043L25.2856 95.3065L27.2837 95.3947ZM33.0566 97.2373L32.3657 96.5143L32.3577 96.5221L33.0566 97.2373ZM35.7183 97.2373L35.0193 97.9525L35.0274 97.9603L35.7183 97.2373ZM35.7183 99.6406L35.0274 98.9176L35.0193 98.9254L35.7183 99.6406ZM33.0566 99.6406L32.3577 100.356L32.3658 100.364L33.0566 99.6406ZM33.5625 98.439C33.5625 98.2169 33.6272 98.078 33.7556 97.9525L32.3577 96.5221C31.8272 97.0405 31.5625 97.7027 31.5625 98.439H33.5625ZM33.7475 97.9603C33.864 97.849 34.0446 97.7544 34.3931 97.7544V95.7544C33.6335 95.7544 32.9231 95.9817 32.3658 96.5143L33.7475 97.9603ZM34.3931 97.7544C34.7423 97.7544 34.9136 97.8491 35.0193 97.9525L36.4172 96.5221C35.8641 95.9816 35.1519 95.7544 34.3931 95.7544V97.7544ZM35.0274 97.9603C35.1607 98.0876 35.2236 98.2242 35.2236 98.439H37.2236C37.2236 97.6954 36.9497 97.0309 36.4091 96.5143L35.0274 97.9603ZM35.2236 98.439C35.2236 98.6537 35.1607 98.7903 35.0274 98.9176L36.4091 100.364C36.9497 99.8471 37.2236 99.1825 37.2236 98.439H35.2236ZM35.0193 98.9254C34.9136 99.0288 34.7423 99.1235 34.3931 99.1235V101.124C35.1519 101.124 35.8641 100.896 36.4172 100.356L35.0193 98.9254ZM34.3931 99.1235C34.0446 99.1235 33.864 99.0289 33.7475 98.9176L32.3658 100.364C32.9231 100.896 33.6335 101.124 34.3931 101.124V99.1235ZM33.7556 98.9254C33.6272 98.8 33.5625 98.6611 33.5625 98.439H31.5625C31.5625 99.1752 31.8272 99.8374 32.3577 100.356L33.7556 98.9254ZM42.8608 83.6484H43.8608V82.6484H42.8608V83.6484ZM42.8608 100V101H43.8608V100H42.8608ZM39.5029 100H38.5029V101H39.5029V100ZM39.5029 83.6484V82.6484H38.5029V83.6484H39.5029ZM41.8608 83.6484V100H43.8608V83.6484H41.8608ZM42.8608 99H39.5029V101H42.8608V99ZM40.5029 100V83.6484H38.5029V100H40.5029ZM39.5029 84.6484H42.8608V82.6484H39.5029V84.6484Z" fill="black" mask="url(#path-17-outside-1_337_4)"/>
</svg>
